<?xml version="1.0" encoding="UTF-8"?>
<svg xmlns="http://www.w3.org/2000/svg" width="1280" height="880" viewBox="0 0 1280 880">
  <defs>
    <style>
      .bg { fill: #eaf2ff; }
      .card { fill: #ffffff; stroke: #dbe7ff; stroke-width: 2; rx: 12; }
      .title { font: 700 22px system-ui; fill: #0b1220; }
      .subtitle { font: 600 16px system-ui; fill: #2563eb; }
      .text { font: 14px system-ui; fill: #0b1220; }
      .edge { stroke: #2563eb; stroke-width: 2.5; marker-end: url(#arrow); fill: none; }
    </style>
    <marker id="arrow" markerWidth="10" markerHeight="10" refX="10" refY="3" orient="auto" markerUnits="strokeWidth">
      <path d="M0,0 L10,3 L0,6 z" fill="#2563eb" />
    </marker>
  </defs>
  <rect class="bg" width="1280" height="880"/>
  <text class="title" x="40" y="56">User Journey (Happy Path)</text>

  <rect class="card" x="60" y="120" width="220" height="120"/>
  <text class="subtitle" x="80" y="150">Landing</text>
  <text class="text" x="80" y="180">See welcome + CTA</text>

  <rect class="card" x="320" y="120" width="220" height="120"/>
  <text class="subtitle" x="340" y="150">Signup/Login</text>
  <text class="text" x="340" y="180">Create account or auth</text>

  <rect class="card" x="580" y="120" width="220" height="120"/>
  <text class="subtitle" x="600" y="150">Quick Setup</text>
  <text class="text" x="600" y="180">Courses, bio, prefs</text>

  <rect class="card" x="840" y="120" width="220" height="120"/>
  <text class="subtitle" x="860" y="150">Match</text>
  <text class="text" x="860" y="180">View buddies list</text>

  <rect class="card" x="320" y="300" width="220" height="120"/>
  <text class="subtitle" x="340" y="330">Chat</text>
  <text class="text" x="340" y="360">Start conversation</text>

  <rect class="card" x="580" y="300" width="220" height="120"/>
  <text class="subtitle" x="600" y="330">Schedule</text>
  <text class="text" x="600" y="360">Propose time</text>

  <rect class="card" x="840" y="300" width="220" height="120"/>
  <text class="subtitle" x="860" y="330">Meet‑up</text>
  <text class="text" x="860" y="360">Join session</text>

  <rect class="card" x="320" y="480" width="220" height="120"/>
  <text class="subtitle" x="340" y="510">Profile</text>
  <text class="text" x="340" y="540">Edit details</text>

  <rect class="card" x="580" y="480" width="220" height="120"/>
  <text class="subtitle" x="600" y="510">Notifications</text>
  <text class="text" x="600" y="540">New msgs & matches</text>

  <!-- edges -->
  <path class="edge" d="M280,180 C300,180 320,180 320,180"/>
  <path class="edge" d="M540,180 C560,180 580,180 580,180"/>
  <path class="edge" d="M800,180 C820,180 840,180 840,180"/>
  <path class="edge" d="M430,240 C430,270 430,300 430,300"/>
  <path class="edge" d="M690,240 C690,270 690,300 690,300"/>
  <path class="edge" d="M950,240 C950,270 950,300 950,300"/>
  <path class="edge" d="M430,420 C430,450 430,480 430,480"/>
  <path class="edge" d="M690,420 C690,450 690,480 690,480"/>
</svg>
